<svg xmlns="http://www.w3.org/2000/svg" viewBox="0 0 1200 630" role="img" aria-labelledby="title desc">
  <title>Jaki to bank</title>
  <desc>Po numerze konta</desc>
  <defs>
    <linearGradient id="bg" x1="0%" y1="0%" x2="100%" y2="100%">
      <stop offset="0%" stop-color="#f8fbff"/>
      <stop offset="100%" stop-color="#edf7ff"/>
    </linearGradient>
    <linearGradient id="accent" x1="0%" y1="0%" x2="100%" y2="100%">
      <stop offset="0%" stop-color="#2563eb"/>
      <stop offset="100%" stop-color="#14b8a6"/>
    </linearGradient>
    <filter id="shadow" x="-20%" y="-20%" width="140%" height="140%">
      <feDropShadow dx="0" dy="20" stdDeviation="18" flood-color="#0f172a" flood-opacity="0.10"/>
    </filter>
  </defs>
  <rect width="1200" height="630" rx="40" fill="url(#bg)"/>
  <circle cx="1060" cy="120" r="160" fill="url(#accent)" opacity="0.10"/>
  <circle cx="120" cy="540" r="170" fill="url(#accent)" opacity="0.08"/>
  <circle cx="1020" cy="500" r="110" fill="#14b8a6" opacity="0.10"/>
  <rect x="70" y="70" width="1060" height="490" rx="38" fill="#ffffff" opacity="0.75"/>
  <g filter="url(#shadow)">
    <rect x="86" y="86" width="1028" height="458" rx="32" fill="#ffffff"/>
  </g>
  <g transform="translate(70 30)">
    <rect x="0" y="0" width="270" height="62" rx="31" fill="url(#accent)" opacity="0.12"/>
    <text x="34" y="40" fill="#2563eb" font-family="Arial, Helvetica, sans-serif" font-size="24" font-weight="700" letter-spacing="1">PO NUMERZE KONTA</text>
  </g>
  <text x="110" y="180" fill="#10233f" font-family="Arial, Helvetica, sans-serif" font-size="60" font-weight="800" letter-spacing="-1">Jaki to bank</text>
  <text x="110" y="236" fill="#5b6474" font-family="Arial, Helvetica, sans-serif" font-size="28">Po numerze konta</text>
  
      <g transform="translate(108 112)">
        <rect x="0" y="120" width="486" height="180" rx="34" fill="#ffffff" stroke="#dbeafe" stroke-width="6"/>
        <rect x="42" y="26" width="248" height="146" rx="28" fill="#eff6ff" stroke="#93c5fd" stroke-width="6"/>
        <rect x="60" y="54" width="212" height="22" rx="11" fill="#bfdbfe"/>
        <rect x="60" y="92" width="168" height="18" rx="9" fill="#dbeafe"/>
        <rect x="60" y="120" width="126" height="18" rx="9" fill="#dbeafe"/>
        <circle cx="382" cy="126" r="72" fill="#ecfeff" stroke="#14b8a6" stroke-width="8"/>
        <circle cx="382" cy="126" r="38" fill="none" stroke="#2563eb" stroke-width="10"/>
        <path d="M411 155l34 34" stroke="#0f172a" stroke-width="12" stroke-linecap="round"/>
        <path d="M358 126h48" stroke="#14b8a6" stroke-width="10" stroke-linecap="round"/>
        <path d="M382 102v48" stroke="#14b8a6" stroke-width="10" stroke-linecap="round"/>
      </g>
      
</svg>
