<svg xmlns="http://www.w3.org/2000/svg" viewBox="0 0 1200 630" role="img" aria-labelledby="title desc">
  <title>Poradniki</title>
  <desc>Finanse krok po kroku</desc>
  <defs>
    <linearGradient id="bg" x1="0%" y1="0%" x2="100%" y2="100%">
      <stop offset="0%" stop-color="#f8fbff"/>
      <stop offset="100%" stop-color="#edf7ff"/>
    </linearGradient>
    <linearGradient id="accent" x1="0%" y1="0%" x2="100%" y2="100%">
      <stop offset="0%" stop-color="#2563eb"/>
      <stop offset="100%" stop-color="#16a34a"/>
    </linearGradient>
    <filter id="shadow" x="-20%" y="-20%" width="140%" height="140%">
      <feDropShadow dx="0" dy="20" stdDeviation="18" flood-color="#0f172a" flood-opacity="0.10"/>
    </filter>
  </defs>
  <rect width="1200" height="630" rx="40" fill="url(#bg)"/>
  <circle cx="1060" cy="120" r="160" fill="url(#accent)" opacity="0.10"/>
  <circle cx="120" cy="540" r="170" fill="url(#accent)" opacity="0.08"/>
  <circle cx="1020" cy="500" r="110" fill="#16a34a" opacity="0.10"/>
  <rect x="70" y="70" width="1060" height="490" rx="38" fill="#ffffff" opacity="0.75"/>
  <g filter="url(#shadow)">
    <rect x="86" y="86" width="1028" height="458" rx="32" fill="#ffffff"/>
  </g>
  <g transform="translate(70 30)">
    <rect x="0" y="0" width="270" height="62" rx="31" fill="url(#accent)" opacity="0.12"/>
    <text x="34" y="40" fill="#2563eb" font-family="Arial, Helvetica, sans-serif" font-size="24" font-weight="700" letter-spacing="1">FINANSE KROK PO KROKU</text>
  </g>
  <text x="110" y="180" fill="#10233f" font-family="Arial, Helvetica, sans-serif" font-size="60" font-weight="800" letter-spacing="-1">Poradniki</text>
  <text x="110" y="236" fill="#5b6474" font-family="Arial, Helvetica, sans-serif" font-size="28">Finanse krok po kroku</text>
  
      <g transform="translate(110 98)">
        <rect x="0" y="76" width="460" height="238" rx="34" fill="#ffffff" stroke="#dbeafe" stroke-width="6"/>
        <path d="M86 118h128v148H86z" fill="#eff6ff" stroke="#93c5fd" stroke-width="6" rx="18"/>
        <path d="M214 118h128v148H214z" fill="#f8fafc" stroke="#bfdbfe" stroke-width="6" rx="18"/>
        <path d="M120 154h60M120 182h78M120 210h52" stroke="#2563eb" stroke-width="10" stroke-linecap="round"/>
        <path d="M248 154h60M248 182h78M248 210h52" stroke="#16a34a" stroke-width="10" stroke-linecap="round"/>
        <circle cx="382" cy="158" r="54" fill="#dcfce7" stroke="#16a34a" stroke-width="8"/>
        <path d="M382 126v62" stroke="#16a34a" stroke-width="10" stroke-linecap="round"/>
        <path d="M356 156h52" stroke="#16a34a" stroke-width="10" stroke-linecap="round"/>
      </g>
      
</svg>
