<svg xmlns="http://www.w3.org/2000/svg" viewBox="0 0 1200 675" role="img" aria-labelledby="title desc">
  <title id="title">Pomoc społeczna i MOPS</title>
  <desc id="desc">Jasna ilustracja z budynkiem urzędu, dokumentami i znacznikami wyboru.</desc>
  <defs>
    <linearGradient id="bg" x1="0" y1="0" x2="1" y2="1">
      <stop offset="0%" stop-color="#f5fbff"/>
      <stop offset="55%" stop-color="#eef9f4"/>
      <stop offset="100%" stop-color="#e7f1ff"/>
    </linearGradient>
    <linearGradient id="accent" x1="0" y1="0" x2="1" y2="1">
      <stop offset="0%" stop-color="#1d4ed8"/>
      <stop offset="100%" stop-color="#14b8a6"/>
    </linearGradient>
  </defs>
  <rect width="1200" height="675" rx="36" fill="url(#bg)"/>
  <circle cx="1020" cy="118" r="84" fill="#d8f3ec"/>
  <circle cx="170" cy="140" r="58" fill="#dbeafe"/>
  <rect x="120" y="136" width="960" height="388" rx="30" fill="#ffffff" stroke="#dbe7f3"/>
  <rect x="188" y="186" width="302" height="282" rx="22" fill="#eff6ff" stroke="#cfe0f6"/>
  <rect x="540" y="186" width="488" height="282" rx="22" fill="#f8fffb" stroke="#d7ebe1"/>
  <rect x="232" y="230" width="214" height="18" rx="9" fill="url(#accent)"/>
  <rect x="232" y="272" width="176" height="16" rx="8" fill="#bfd7f0"/>
  <rect x="232" y="302" width="196" height="16" rx="8" fill="#bfd7f0"/>
  <rect x="232" y="332" width="162" height="16" rx="8" fill="#bfd7f0"/>
  <rect x="232" y="370" width="124" height="44" rx="14" fill="#d9effa"/>
  <path d="M260 392l13 13 28-29" fill="none" stroke="#0f766e" stroke-width="8" stroke-linecap="round" stroke-linejoin="round"/>
  <rect x="580" y="226" width="180" height="122" rx="18" fill="#ffffff" stroke="#d7e3ee"/>
  <rect x="612" y="254" width="116" height="14" rx="7" fill="#bfd7f0"/>
  <rect x="612" y="282" width="88" height="14" rx="7" fill="#bfd7f0"/>
  <circle cx="760" cy="282" r="24" fill="#dcfce7"/>
  <path d="M748 282l9 9 17-20" fill="none" stroke="#0f766e" stroke-width="6" stroke-linecap="round" stroke-linejoin="round"/>
  <rect x="580" y="372" width="364" height="72" rx="18" fill="#eefbf5" stroke="#d7ebe1"/>
  <path d="M620 402h280" stroke="#8dd3b5" stroke-width="12" stroke-linecap="round"/>
  <path d="M620 424h180" stroke="#c5e8d8" stroke-width="12" stroke-linecap="round"/>
  <rect x="962" y="366" width="34" height="78" rx="10" fill="#1d4ed8"/>
  <path d="M978 388v34" stroke="#ffffff" stroke-width="8" stroke-linecap="round"/>
  <path d="M966 400h24" stroke="#ffffff" stroke-width="8" stroke-linecap="round"/>
  <circle cx="928" cy="240" r="38" fill="#dbeafe"/>
  <path d="M910 240l14 14 28-33" fill="none" stroke="#1d4ed8" stroke-width="8" stroke-linecap="round" stroke-linejoin="round"/>
  <path d="M120 548h960" stroke="#dbe7f3" stroke-width="4"/>
</svg>
